<mxfile host="65bd71144e">
    <diagram id="3eA47-Gw44HiiA3PlTDr" name="Page-1">
        <mxGraphModel dx="977" dy="809" grid="1" gridSize="10" guides="1" tooltips="1" connect="1" arrows="1" fold="1" page="1" pageScale="1" pageWidth="850" pageHeight="1100" background="#ffffff" math="0" shadow="0">
            <root>
                <mxCell id="0"/>
                <mxCell id="1" parent="0"/>
                <mxCell id="53" style="edgeStyle=orthogonalEdgeStyle;html=1;exitX=0.5;exitY=0;exitDx=0;exitDy=0;entryX=0;entryY=0.5;entryDx=0;entryDy=0;" parent="1" source="52" target="2" edge="1">
                    <mxGeometry relative="1" as="geometry"/>
                </mxCell>
                <mxCell id="52" value="Dérive au loin" style="rounded=1;whiteSpace=wrap;html=1;" parent="1" vertex="1">
                    <mxGeometry x="220" y="780" width="120" height="60" as="geometry"/>
                </mxCell>
                <mxCell id="2" value="Tour d'hélicoptère avec un ami&amp;nbsp;" style="rounded=1;whiteSpace=wrap;html=1;" parent="1" vertex="1">
                    <mxGeometry x="440" y="60" width="120" height="60" as="geometry"/>
                </mxCell>
                <mxCell id="3" value="Votre réservoir d'essence est presque vide." style="rhombus;whiteSpace=wrap;html=1;rounded=1;" parent="1" vertex="1">
                    <mxGeometry x="442.5" y="142.5" width="115" height="115" as="geometry"/>
                </mxCell>
                <mxCell id="4" value="Atterissage sur un banc de sable" style="rounded=1;whiteSpace=wrap;html=1;" parent="1" vertex="1">
                    <mxGeometry x="440" y="300" width="120" height="60" as="geometry"/>
                </mxCell>
                <mxCell id="51" value="" style="edgeStyle=none;html=1;" parent="1" source="5" target="3" edge="1">
                    <mxGeometry relative="1" as="geometry"/>
                </mxCell>
                <mxCell id="5" value="Vous mourez tous les deux&amp;nbsp;" style="rounded=1;whiteSpace=wrap;html=1;" parent="1" vertex="1">
                    <mxGeometry x="630" y="170" width="120" height="60" as="geometry"/>
                </mxCell>
                <mxCell id="6" value="" style="endArrow=classic;html=1;entryX=0;entryY=0.5;entryDx=0;entryDy=0;exitX=0.952;exitY=0.483;exitDx=0;exitDy=0;exitPerimeter=0;" parent="1" source="3" target="5" edge="1">
                    <mxGeometry width="50" height="50" relative="1" as="geometry">
                        <mxPoint x="562.5" y="199.5" as="sourcePoint"/>
                        <mxPoint x="635" y="199.5" as="targetPoint"/>
                    </mxGeometry>
                </mxCell>
                <mxCell id="7" value="Décide de &lt;br&gt;continuer" style="edgeLabel;html=1;align=center;verticalAlign=middle;resizable=0;points=[];rounded=1;" parent="6" vertex="1" connectable="0">
                    <mxGeometry x="0.3231" y="-1" relative="1" as="geometry">
                        <mxPoint x="-23" y="-1" as="offset"/>
                    </mxGeometry>
                </mxCell>
                <mxCell id="8" value="" style="endArrow=classic;html=1;entryX=0.5;entryY=0;entryDx=0;entryDy=0;exitX=0.5;exitY=1;exitDx=0;exitDy=0;" parent="1" source="3" target="4" edge="1">
                    <mxGeometry width="50" height="50" relative="1" as="geometry">
                        <mxPoint x="550" y="210" as="sourcePoint"/>
                        <mxPoint x="615" y="210" as="targetPoint"/>
                    </mxGeometry>
                </mxCell>
                <mxCell id="9" value="Atterissage&amp;nbsp;" style="edgeLabel;html=1;align=center;verticalAlign=middle;resizable=0;points=[];rounded=1;" parent="8" vertex="1" connectable="0">
                    <mxGeometry x="0.3231" y="-1" relative="1" as="geometry">
                        <mxPoint x="1" y="-15" as="offset"/>
                    </mxGeometry>
                </mxCell>
                <mxCell id="10" value="" style="endArrow=classic;html=1;exitX=0.5;exitY=1;exitDx=0;exitDy=0;" parent="1" source="2" target="3" edge="1">
                    <mxGeometry width="50" height="50" relative="1" as="geometry">
                        <mxPoint x="770" y="410" as="sourcePoint"/>
                        <mxPoint x="820" y="360" as="targetPoint"/>
                    </mxGeometry>
                </mxCell>
                <mxCell id="11" value="" style="endArrow=classic;html=1;entryX=1;entryY=0.5;entryDx=0;entryDy=0;edgeStyle=orthogonalEdgeStyle;exitX=1;exitY=0.5;exitDx=0;exitDy=0;" parent="1" source="5" target="2" edge="1">
                    <mxGeometry width="50" height="50" relative="1" as="geometry">
                        <mxPoint x="670" y="240" as="sourcePoint"/>
                        <mxPoint x="660" y="240" as="targetPoint"/>
                        <Array as="points">
                            <mxPoint x="770" y="200"/>
                            <mxPoint x="770" y="90"/>
                        </Array>
                    </mxGeometry>
                </mxCell>
                <mxCell id="14" value="&lt;h1&gt;PS1.1&lt;/h1&gt;&lt;p&gt;&lt;b&gt;Genre:&lt;/b&gt; Aventure, Action&lt;/p&gt;&lt;p&gt;&lt;span style=&quot;background-color: initial;&quot;&gt;&lt;b&gt;Inspiration: &lt;/b&gt;Jeu de l'île padi-pado&lt;/span&gt;&lt;/p&gt;&lt;p&gt;&lt;span style=&quot;background-color: initial;&quot;&gt;&lt;b&gt;Nom:&lt;/b&gt; 6,5 gallons au compteur&lt;/span&gt;&lt;/p&gt;&lt;p&gt;&lt;span style=&quot;background-color: initial;&quot;&gt;&lt;b&gt;Palette:&lt;/b&gt;&amp;nbsp;&amp;nbsp;&lt;/span&gt;&lt;br&gt;&lt;/p&gt;&lt;p&gt;&lt;/p&gt;&lt;ul&gt;&lt;li&gt;&lt;span style=&quot;background-color: initial;&quot;&gt;couleur de fond du site: #&lt;/span&gt;ccc5b9&lt;/li&gt;&lt;li&gt;&lt;span style=&quot;background-color: initial;&quot;&gt;couleur de fond du contenu: #&lt;/span&gt;76726B&lt;/li&gt;&lt;li&gt;&lt;span style=&quot;background-color: initial;&quot;&gt;couleur de la police: #&lt;/span&gt;FAF9F9&lt;/li&gt;&lt;li&gt;&lt;span style=&quot;background-color: initial;&quot;&gt;couleur de fond des boutons: #&lt;/span&gt;90e0ef&lt;/li&gt;&lt;li&gt;&lt;span style=&quot;background-color: initial;&quot;&gt;couleur de fond des bouton (hover): #&lt;/span&gt;48cae4&lt;/li&gt;&lt;li&gt;&lt;span style=&quot;background-color: initial;&quot;&gt;couleur de la police des boutons: #&lt;/span&gt;5C5242&lt;/li&gt;&lt;li&gt;&lt;span style=&quot;background-color: initial;&quot;&gt;couleur de la police des boutons (hover); #&lt;/span&gt;221B1B&lt;/li&gt;&lt;/ul&gt;&lt;p&gt;&lt;/p&gt;&lt;p&gt;&lt;span style=&quot;background-color: initial;&quot;&gt;&lt;br&gt;&lt;/span&gt;&lt;/p&gt;" style="text;html=1;strokeColor=none;fillColor=none;spacing=5;spacingTop=-20;whiteSpace=wrap;overflow=hidden;rounded=0;" parent="1" vertex="1">
                    <mxGeometry x="20" y="70" width="240" height="390" as="geometry"/>
                </mxCell>
                <mxCell id="21" style="edgeStyle=none;html=1;entryX=0;entryY=0.5;entryDx=0;entryDy=0;exitX=0.951;exitY=0.479;exitDx=0;exitDy=0;exitPerimeter=0;" parent="1" source="16" target="20" edge="1">
                    <mxGeometry relative="1" as="geometry">
                        <mxPoint x="520" y="460" as="sourcePoint"/>
                    </mxGeometry>
                </mxCell>
                <mxCell id="24" value="&lt;span style=&quot;font-size: 12px;&quot;&gt;Appel radio &lt;br&gt;satellite&lt;/span&gt;" style="edgeLabel;html=1;align=center;verticalAlign=middle;resizable=0;points=[];" parent="21" vertex="1" connectable="0">
                    <mxGeometry x="0.366" y="1" relative="1" as="geometry">
                        <mxPoint x="-28" y="2" as="offset"/>
                    </mxGeometry>
                </mxCell>
                <mxCell id="22" style="edgeStyle=none;html=1;exitX=0.5;exitY=1;exitDx=0;exitDy=0;entryX=0.5;entryY=0;entryDx=0;entryDy=0;" parent="1" source="16" target="19" edge="1">
                    <mxGeometry relative="1" as="geometry"/>
                </mxCell>
                <mxCell id="23" value="&lt;span style=&quot;font-size: 12px;&quot;&gt;Part à la recherche &lt;br&gt;du bateau&lt;br&gt;&amp;nbsp;de sauvetage &lt;br&gt;&lt;br&gt;&lt;/span&gt;" style="edgeLabel;html=1;align=center;verticalAlign=middle;resizable=0;points=[];" parent="22" vertex="1" connectable="0">
                    <mxGeometry x="0.3384" y="1" relative="1" as="geometry">
                        <mxPoint x="-1" y="-37" as="offset"/>
                    </mxGeometry>
                </mxCell>
                <mxCell id="16" value="Que faire?" style="rhombus;whiteSpace=wrap;html=1;rounded=1;" parent="1" vertex="1">
                    <mxGeometry x="445" y="380" width="110" height="110" as="geometry"/>
                </mxCell>
                <mxCell id="17" value="" style="endArrow=classic;html=1;exitX=0.5;exitY=1;exitDx=0;exitDy=0;entryX=0.5;entryY=0;entryDx=0;entryDy=0;" parent="1" target="16" edge="1">
                    <mxGeometry width="50" height="50" relative="1" as="geometry">
                        <mxPoint x="499.66" y="359.9999999999999" as="sourcePoint"/>
                        <mxPoint x="499.66" y="385" as="targetPoint"/>
                    </mxGeometry>
                </mxCell>
                <mxCell id="26" style="edgeStyle=none;html=1;exitX=0.5;exitY=1;exitDx=0;exitDy=0;entryX=1;entryY=0.5;entryDx=0;entryDy=0;" parent="1" source="19" target="52" edge="1">
                    <mxGeometry relative="1" as="geometry">
                        <mxPoint x="497.5" y="765" as="targetPoint"/>
                    </mxGeometry>
                </mxCell>
                <mxCell id="59" value="N'a pas les rames &lt;br&gt;en sa possession" style="edgeLabel;html=1;align=center;verticalAlign=middle;resizable=0;points=[];" parent="26" vertex="1" connectable="0">
                    <mxGeometry x="0.4486" y="-2" relative="1" as="geometry">
                        <mxPoint x="22" y="-18" as="offset"/>
                    </mxGeometry>
                </mxCell>
                <mxCell id="58" style="edgeStyle=none;html=1;exitX=0.5;exitY=1;exitDx=0;exitDy=0;entryX=0;entryY=0.5;entryDx=0;entryDy=0;" parent="1" source="19" target="35" edge="1">
                    <mxGeometry relative="1" as="geometry"/>
                </mxCell>
                <mxCell id="60" value="A les rames en&lt;br&gt;&amp;nbsp;sa possession" style="edgeLabel;html=1;align=center;verticalAlign=middle;resizable=0;points=[];" parent="58" vertex="1" connectable="0">
                    <mxGeometry x="-0.3754" y="1" relative="1" as="geometry">
                        <mxPoint x="12" y="27" as="offset"/>
                    </mxGeometry>
                </mxCell>
                <mxCell id="19" value="Embarquement dans le bateau de sauvetage" style="rounded=1;whiteSpace=wrap;html=1;" parent="1" vertex="1">
                    <mxGeometry x="440" y="650" width="120" height="60" as="geometry"/>
                </mxCell>
                <mxCell id="34" style="edgeStyle=none;html=1;exitX=0.5;exitY=1;exitDx=0;exitDy=0;entryX=0.5;entryY=0;entryDx=0;entryDy=0;" parent="1" source="20" target="33" edge="1">
                    <mxGeometry relative="1" as="geometry"/>
                </mxCell>
                <mxCell id="20" value="La garde cotière répond" style="rounded=1;whiteSpace=wrap;html=1;" parent="1" vertex="1">
                    <mxGeometry x="650" y="400" width="120" height="60" as="geometry"/>
                </mxCell>
                <mxCell id="38" style="edgeStyle=orthogonalEdgeStyle;html=1;exitX=0;exitY=0.5;exitDx=0;exitDy=0;entryX=0.25;entryY=0;entryDx=0;entryDy=0;" parent="1" source="33" target="35" edge="1">
                    <mxGeometry relative="1" as="geometry">
                        <mxPoint x="660" y="800" as="targetPoint"/>
                        <mxPoint x="690" y="630" as="sourcePoint"/>
                        <Array as="points">
                            <mxPoint x="620" y="575"/>
                        </Array>
                    </mxGeometry>
                </mxCell>
                <mxCell id="40" value="&lt;span style=&quot;font-size: 12px;&quot;&gt;Aller sur le toit &lt;br&gt;de l'hélicoptère&lt;/span&gt;" style="edgeLabel;html=1;align=center;verticalAlign=middle;resizable=0;points=[];" parent="38" vertex="1" connectable="0">
                    <mxGeometry x="0.4427" y="-1" relative="1" as="geometry">
                        <mxPoint x="1" y="-67" as="offset"/>
                    </mxGeometry>
                </mxCell>
                <mxCell id="39" style="edgeStyle=orthogonalEdgeStyle;html=1;entryX=1;entryY=0.5;entryDx=0;entryDy=0;exitX=1;exitY=0.5;exitDx=0;exitDy=0;" parent="1" source="33" target="35" edge="1">
                    <mxGeometry relative="1" as="geometry">
                        <mxPoint x="785" y="580" as="sourcePoint"/>
                        <mxPoint x="760" y="865" as="targetPoint"/>
                    </mxGeometry>
                </mxCell>
                <mxCell id="41" value="&lt;span style=&quot;font-size: 12px;&quot;&gt;Aller sur &lt;br&gt;le bateau&lt;/span&gt;&lt;br style=&quot;border-color: var(--border-color); font-size: 12px;&quot;&gt;&lt;span style=&quot;font-size: 12px;&quot;&gt;de sauvetage&lt;br&gt;&amp;nbsp;gonflable&lt;/span&gt;" style="edgeLabel;html=1;align=center;verticalAlign=middle;resizable=0;points=[];" parent="39" vertex="1" connectable="0">
                    <mxGeometry x="0.4256" y="2" relative="1" as="geometry">
                        <mxPoint y="-77" as="offset"/>
                    </mxGeometry>
                </mxCell>
                <mxCell id="33" value="La marée &lt;br&gt;monte plus vite &lt;br&gt;que prévue" style="rhombus;whiteSpace=wrap;html=1;rounded=1;" parent="1" vertex="1">
                    <mxGeometry x="655" y="520" width="110" height="110" as="geometry"/>
                </mxCell>
                <mxCell id="35" value="Vous êtes sain et sauf dans l'hélicoptère. Une alarme sonne sur le tableau de bord. Puis, vous vous réveillez." style="rounded=1;whiteSpace=wrap;html=1;" parent="1" vertex="1">
                    <mxGeometry x="580" y="810" width="160" height="80" as="geometry"/>
                </mxCell>
                <mxCell id="56" style="edgeStyle=orthogonalEdgeStyle;html=1;entryX=0;entryY=0.5;entryDx=0;entryDy=0;exitX=0.5;exitY=1;exitDx=0;exitDy=0;" parent="1" source="61" target="19" edge="1">
                    <mxGeometry relative="1" as="geometry">
                        <Array as="points">
                            <mxPoint x="350" y="680"/>
                        </Array>
                        <mxPoint x="370" y="610" as="sourcePoint"/>
                    </mxGeometry>
                </mxCell>
                <mxCell id="55" value="" style="endArrow=classic;html=1;exitX=0.036;exitY=0.495;exitDx=0;exitDy=0;entryX=0.25;entryY=0;entryDx=0;entryDy=0;exitPerimeter=0;edgeStyle=orthogonalEdgeStyle;" parent="1" source="16" edge="1">
                    <mxGeometry width="50" height="50" relative="1" as="geometry">
                        <mxPoint x="440" y="630" as="sourcePoint"/>
                        <mxPoint x="350" y="530" as="targetPoint"/>
                    </mxGeometry>
                </mxCell>
                <mxCell id="57" value="Décide de regarder&lt;br&gt;&amp;nbsp;autours" style="edgeLabel;html=1;align=center;verticalAlign=middle;resizable=0;points=[];" parent="55" vertex="1" connectable="0">
                    <mxGeometry x="-0.2471" y="2" relative="1" as="geometry">
                        <mxPoint x="-26" y="44" as="offset"/>
                    </mxGeometry>
                </mxCell>
                <mxCell id="61" value="Vous trouvez une rame. Allez vers le bateau" style="rounded=1;whiteSpace=wrap;html=1;" parent="1" vertex="1">
                    <mxGeometry x="300" y="530" width="100" height="60" as="geometry"/>
                </mxCell>
            </root>
        </mxGraphModel>
    </diagram>
</mxfile>